PathFileType	4	(X/Y/Z)	 s04c0302.trc
DataRate	CameraRate	NumFrames	NumMarkers	Units	OrigDataRate	OrigDataStartFrame	OrigNumFrames
200	200	4	50	mm	200	751	2000
Frame#	Time	racr			lacr			c7			jug			rlel			rdr			llel			ldr			s2			lic			ric			lasi			rasi			rpsi			lpsi			rgt			lgt			rth1			rth2			rth3			rth4			rlfc			rmfc			rsh1			rsh2			rsh3			rsh4			rlmal			rmmal			rcal			rtoe			rmt5			lth1			lth2			lth4			lth3			llfc			lmfc			lsh1			lsh2			lsh3			lsh4			llmal			lmmal			lcal			ltoe			lmt5			SBIKE			LBIKE			RBIKE			
		X1	Y1	Z1	X2	Y2	Z2	X3	Y3	Z3	X4	Y4	Z4	X5	Y5	Z5	X6	Y6	Z6	X7	Y7	Z7	X8	Y8	Z8	X9	Y9	Z9	X10	Y10	Z10	X11	Y11	Z11	X12	Y12	Z12	X13	Y13	Z13	X14	Y14	Z14	X15	Y15	Z15	X16	Y16	Z16	X17	Y17	Z17	X18	Y18	Z18	X19	Y19	Z19	X20	Y20	Z20	X21	Y21	Z21	X22	Y22	Z22	X23	Y23	Z23	X24	Y24	Z24	X25	Y25	Z25	X26	Y26	Z26	X27	Y27	Z27	X28	Y28	Z28	X29	Y29	Z29	X30	Y30	Z30	X31	Y31	Z31	X32	Y32	Z32	X33	Y33	Z33	X34	Y34	Z34	X35	Y35	Z35	X36	Y36	Z36	X37	Y37	Z37	X38	Y38	Z38	X39	Y39	Z39	X40	Y40	Z40	X41	Y41	Z41	X42	Y42	Z42	X43	Y43	Z43	X44	Y44	Z44	X45	Y45	Z45	X46	Y46	Z46	X47	Y47	Z47	X48	Y48	Z48	X49	Y49	Z49	X50	Y50	Z50	
751	3.7550	816.391149	1327.558983	-64.419772	848.897244	1280.840886	-379.902413	847.339869	1381.538803	-232.424106	780.850293	1236.045255	-228.208862	607.537718	1131.441568	93.817306	710.356713	921.342331	-67.212703	632.975396	1149.453569	-553.418551	715.060291	916.170637	-453.520487	260.986584	1258.144908	-338.826889	446.784376	1201.012887	-445.757663	366.273250	1295.114244	-149.638854	460.375089	1156.988081	-381.742195	415.535569	1234.019460	-169.702599	286.975130	1306.992631	-304.971227	306.646021	1288.310747	-375.848755	324.529324	1246.078860	-126.398890	363.918238	1116.920687	-465.286852	436.749068	1136.642081	-82.456736	513.409055	1093.381478	-76.802324	559.122579	1022.856721	-62.577024	536.382683	1114.576804	-98.020549	638.930518	906.043435	-65.962750	639.291686	880.247643	-184.085344	535.984260	844.062602	-59.165233	476.474339	777.039193	-79.138631	395.331685	755.980476	-98.104109	499.082080	750.327557	-95.201288	276.413016	656.127704	-119.417060	310.701229	643.545330	-197.287840	216.122633	682.689372	-168.913742	383.830149	429.646511	-145.930017	322.214438	472.019774	-97.243026	355.029299	1034.480404	-477.504354	376.982925	950.297128	-476.307126	412.470033	950.964399	-468.712799	352.931357	864.731633	-473.832556	338.831384	694.916201	-453.072893	352.489119	669.064814	-341.303497	297.093165	572.228542	-473.996228	285.229320	488.259982	-454.915639	233.391049	416.377587	-455.618872	312.644789	480.853279	-427.540576	177.597312	279.808234	-453.467817	170.648661	282.432918	-366.617779	100.740180	299.989795	-420.011330	347.530425	123.554026	-393.976603	274.126732	129.541288	-462.767666	-177.034559	935.479578	-280.875073	-3.320531	85.525962	-484.648206	-15.025917	80.668790	-84.258754	
752	3.7600	817.812254	1324.855344	-62.860170	849.239099	1281.908977	-378.513028	848.151833	1380.553160	-230.703545	781.739765	1234.994405	-227.652934	606.812195	1130.521181	96.500354	710.228642	921.998823	-66.296841	634.061425	1150.247593	-552.391005	715.143001	915.985025	-453.229877	261.355499	1261.720185	-340.347682	448.881217	1203.643318	-447.022050	365.369144	1297.279229	-150.031751	460.533234	1159.380471	-381.663163	414.550672	1236.617552	-170.281398	287.425330	1310.498772	-306.700311	307.781924	1291.660183	-376.808050	323.090015	1249.652121	-127.590717	364.172324	1119.999111	-466.295239	435.685450	1141.330581	-83.772829	512.761783	1098.719386	-78.301963	559.420416	1028.676608	-64.751830	535.542113	1120.586292	-98.904333	639.875815	912.531328	-68.225308	641.355277	887.820860	-186.000490	539.458901	849.124907	-60.269680	481.447848	780.739800	-79.588993	400.964988	757.683994	-98.330535	504.642660	754.233384	-95.772395	283.603677	654.658030	-119.130835	317.407137	642.705814	-196.824483	222.677040	679.981747	-168.281177	395.054439	430.012472	-145.980561	332.538364	471.251133	-96.995642	354.825606	1038.253167	-478.317925	375.751998	953.809265	-477.048846	411.095320	954.017730	-469.183702	350.810582	868.478683	-474.989607	333.144720	698.801761	-454.573417	347.535442	672.138276	-342.265624	290.601473	576.245887	-475.533609	278.910121	492.284862	-456.332604	226.898344	420.484852	-456.901990	306.568790	484.756540	-429.379579	171.556011	283.744476	-454.247982	163.947171	286.847337	-368.388289	95.241030	305.385760	-420.612236	337.421184	122.668699	-394.397287	264.153092	130.341052	-463.106869	-177.040379	935.513582	-280.796144	-3.322749	85.565568	-484.630081	-15.010248	80.699766	-84.254018	
753	3.7650	819.360854	1321.797463	-61.052111	849.467319	1283.066401	-377.235650	848.818958	1379.620291	-228.956191	782.820384	1233.851457	-227.203596	605.957051	1129.408755	99.059116	709.989159	922.697506	-65.058787	635.033241	1151.036749	-551.325793	714.606472	915.240788	-451.228406	261.744572	1265.486911	-341.441710	451.212358	1206.425017	-447.778210	364.393633	1299.621907	-150.174340	462.192286	1162.339381	-384.360853	413.655265	1239.286604	-170.790041	287.853830	1314.218772	-307.759298	308.948788	1295.537664	-377.574447	321.877358	1253.519434	-128.544911	364.528267	1123.285083	-467.081072	434.516214	1145.616572	-85.387872	511.682766	1103.576936	-79.395982	558.310045	1033.678873	-66.094524	534.556030	1125.817717	-100.190194	644.113126	918.614075	-72.548734	642.864170	894.725873	-188.200526	542.522969	853.492639	-61.579169	486.068795	783.587411	-80.320385	406.052774	758.560003	-98.579881	509.682965	757.881007	-95.811762	290.254784	652.414410	-118.698722	324.586677	641.269237	-196.440977	228.634639	676.482260	-167.623666	405.935801	429.783857	-146.017424	342.608012	469.920076	-96.643028	354.913556	1042.116263	-478.756634	375.013732	957.519360	-477.585215	410.240085	957.361059	-469.394253	349.229439	872.341813	-476.117503	328.696979	702.951213	-455.757770	343.375502	675.359062	-343.103514	285.465266	580.697349	-476.795956	273.514628	496.642582	-457.657023	221.186347	425.109039	-458.109557	301.277545	488.963746	-430.946734	165.532965	288.273906	-455.256488	158.084036	291.613350	-369.247113	89.743007	311.251648	-421.354756	327.365403	122.627603	-394.778791	254.240794	131.771728	-463.350175	-177.022143	935.567240	-280.666285	-3.323825	85.618833	-484.617693	-15.036451	80.735157	-84.261089	
754	3.7700	820.951319	1318.267849	-59.602785	849.589677	1284.051691	-376.049083	849.465289	1378.327394	-227.275524	783.815413	1232.390230	-226.974382	604.926492	1128.149573	101.201296	709.552455	923.134538	-64.142384	635.831677	1151.766031	-550.268503	714.621567	915.144617	-451.115022	262.167664	1269.614221	-342.711521	450.943319	1208.964888	-446.694180	363.602104	1302.079326	-150.125522	462.065331	1165.002225	-384.340094	412.845530	1242.121108	-171.163634	288.271822	1318.317297	-308.024821	309.918113	1299.271963	-377.916994	321.066960	1257.750980	-128.977752	364.923502	1126.837660	-467.588847	433.138913	1150.304216	-86.034041	510.294571	1107.815115	-80.602257	556.760601	1037.657934	-67.969778	533.188388	1129.876780	-101.399299	644.880738	923.425384	-74.357644	643.678424	900.778157	-190.598494	545.065898	856.654429	-63.842599	489.838051	785.558665	-81.129445	410.355466	758.497017	-98.849772	513.974489	760.212029	-96.551596	296.324052	649.560675	-118.331444	330.561330	639.018970	-196.057561	234.146439	672.081687	-166.664892	416.738595	429.591447	-145.620197	352.417962	468.020491	-96.216699	355.316277	1046.075839	-478.964050	374.807388	961.301128	-477.915904	409.904881	960.871013	-469.386840	348.417243	876.332212	-477.151940	325.673514	707.342386	-456.875145	340.251738	678.412912	-343.924413	281.628313	585.250951	-478.098275	269.098877	501.163300	-458.887035	216.253537	430.033764	-459.374770	296.893386	493.297250	-432.359604	159.306286	293.338005	-456.414859	152.645834	296.700273	-369.945880	84.266370	317.602159	-422.229654	317.389273	123.406795	-395.057909	244.410516	134.073371	-463.579450	-177.020441	935.606392	-280.527632	-3.346297	85.658532	-484.611778	-15.036911	80.732546	-84.235168	
